<svg width="920" height="720" viewBox="0 0 920 720" fill="none" xmlns="http://www.w3.org/2000/svg" role="img" aria-labelledby="title desc">
  <title id="title">Software dashboard visual</title>
  <desc id="desc">Layered software interface windows, charts, and code panels.</desc>
  <rect width="920" height="720" rx="42" fill="#E8F3EF"/>
  <circle cx="745" cy="126" r="72" fill="#F4B942"/>
  <circle cx="160" cy="602" r="84" fill="#F26D5B"/>
  <path d="M95 170C95 139.072 120.072 114 151 114H706C736.928 114 762 139.072 762 170V515C762 545.928 736.928 571 706 571H151C120.072 571 95 545.928 95 515V170Z" fill="#142027"/>
  <path d="M95 170C95 139.072 120.072 114 151 114H706C736.928 114 762 139.072 762 170V202H95V170Z" fill="#263941"/>
  <circle cx="143" cy="158" r="11" fill="#F26D5B"/>
  <circle cx="178" cy="158" r="11" fill="#F4B942"/>
  <circle cx="213" cy="158" r="11" fill="#0D6F61"/>
  <rect x="140" y="245" width="186" height="226" rx="18" fill="#FBFCF8"/>
  <rect x="360" y="245" width="348" height="78" rx="18" fill="#FBFCF8"/>
  <rect x="360" y="352" width="348" height="119" rx="18" fill="#FBFCF8"/>
  <rect x="166" y="276" width="70" height="12" rx="6" fill="#0D6F61"/>
  <rect x="166" y="309" width="132" height="12" rx="6" fill="#D9E3E6"/>
  <rect x="166" y="338" width="104" height="12" rx="6" fill="#D9E3E6"/>
  <rect x="166" y="390" width="132" height="48" rx="12" fill="#E8F3EF"/>
  <rect x="389" y="272" width="92" height="12" rx="6" fill="#0D6F61"/>
  <rect x="389" y="294" width="248" height="10" rx="5" fill="#D9E3E6"/>
  <path d="M395 432C424 390 459 414 486 383C515 350 553 388 582 367C609 348 635 369 670 329" stroke="#2978A0" stroke-width="14" stroke-linecap="round" stroke-linejoin="round"/>
  <path d="M387 433H681" stroke="#D9E3E6" stroke-width="10" stroke-linecap="round"/>
  <path d="M810 278C810 255.909 792.091 238 770 238H573C550.909 238 533 255.909 533 278V571C533 593.091 550.909 611 573 611H770C792.091 611 810 593.091 810 571V278Z" fill="#FFFFFF" stroke="#D9E3E6" stroke-width="4"/>
  <rect x="566" y="286" width="95" height="14" rx="7" fill="#142027"/>
  <rect x="566" y="326" width="209" height="14" rx="7" fill="#D9E3E6"/>
  <rect x="566" y="360" width="164" height="14" rx="7" fill="#D9E3E6"/>
  <rect x="566" y="424" width="44" height="118" rx="10" fill="#F26D5B"/>
  <rect x="630" y="390" width="44" height="152" rx="10" fill="#F4B942"/>
  <rect x="694" y="348" width="44" height="194" rx="10" fill="#0D6F61"/>
  <path d="M245 101L278 60L311 101" stroke="#0D6F61" stroke-width="18" stroke-linecap="round" stroke-linejoin="round"/>
  <path d="M642 640L675 681L708 640" stroke="#2978A0" stroke-width="18" stroke-linecap="round" stroke-linejoin="round"/>
</svg>
